<?xml version="1.0" encoding="utf-8"?>
<!-- Generator: Adobe Illustrator 23.0.1, SVG Export Plug-In . SVG Version: 6.00 Build 0)  -->
<svg version="1.1" id="Layer_1" xmlns="http://www.w3.org/2000/svg" xmlns:xlink="http://www.w3.org/1999/xlink" x="0px" y="0px"
	 viewBox="0 0 800 800" style="enable-background:new 0 0 800 800;" xml:space="preserve">
<style type="text/css">
	.st0{opacity:0.5;}
	.st1{clip-path:url(#SVGID_2_);}
	.st2{fill:#FFFFFF;fill-opacity:0;stroke:#FFFFFF;stroke-width:12;stroke-miterlimit:50;}
	.st3{clip-path:url(#SVGID_4_);}
	.st4{clip-path:url(#SVGID_6_);}
	.st5{clip-path:url(#SVGID_8_);}
	.st6{clip-path:url(#SVGID_10_);}
	.st7{clip-path:url(#SVGID_12_);}
	.st8{clip-path:url(#SVGID_14_);}
	.st9{clip-path:url(#SVGID_16_);}
	.st10{clip-path:url(#SVGID_18_);}
	.st11{display:none;}
	.st12{display:inline;}
	.st13{opacity:0.58;}
	.st14{clip-path:url(#SVGID_20_);}
	.st15{clip-path:url(#SVGID_22_);}
	.st16{opacity:0.2;}
	.st17{clip-path:url(#SVGID_24_);}
	.st18{opacity:0.45;}
	.st19{clip-path:url(#SVGID_26_);}
	.st20{fill:#FFFFFF;}
	.st21{clip-path:url(#SVGID_28_);}
	.st22{clip-path:url(#SVGID_30_);}
	.st23{clip-path:url(#SVGID_32_);}
	.st24{clip-path:url(#SVGID_34_);}
	.st25{clip-path:url(#SVGID_36_);}
	.st26{clip-path:url(#SVGID_38_);}
</style>
<g>
	<g transform="translate(-659 -156)">
		<g>
			<g class="st0">
				<g class="st0">
					<g class="st0">
						<g>
							<defs>
								<rect id="SVGID_1_" x="976.2" y="735.8" width="58.4" height="60.7"/>
							</defs>
							<clipPath id="SVGID_2_">
								<use xlink:href="#SVGID_1_"  style="overflow:visible;"/>
							</clipPath>
							<g class="st1">
								<path class="st2" d="M976.2,796.5v-60.7h58.4v60.7H976.2z"/>
							</g>
						</g>
					</g>
				</g>
				<g class="st0">
					<g class="st0">
						<g>
							<defs>
								<rect id="SVGID_3_" x="1080.1" y="682.1" width="58.4" height="60.7"/>
							</defs>
							<clipPath id="SVGID_4_">
								<use xlink:href="#SVGID_3_"  style="overflow:visible;"/>
							</clipPath>
							<g class="st3">
								<path class="st2" d="M1080.1,742.8v-60.7h58.4v60.7H1080.1z"/>
							</g>
						</g>
					</g>
				</g>
				<g class="st0">
					<g class="st0">
						<g>
							<defs>
								<rect id="SVGID_5_" x="1131.5" y="787.2" width="58.4" height="60.7"/>
							</defs>
							<clipPath id="SVGID_6_">
								<use xlink:href="#SVGID_5_"  style="overflow:visible;"/>
							</clipPath>
							<g class="st4">
								<path class="st2" d="M1131.5,847.9v-60.7h58.4v60.7H1131.5z"/>
							</g>
						</g>
					</g>
				</g>
				<g class="st0">
					<g class="st0">
						<g>
							<defs>
								<rect id="SVGID_7_" x="1027.6" y="262.9" width="58.4" height="60.7"/>
							</defs>
							<clipPath id="SVGID_8_">
								<use xlink:href="#SVGID_7_"  style="overflow:visible;"/>
							</clipPath>
							<g class="st5">
								<path class="st2" d="M1027.6,323.6v-60.7h58.4v60.7H1027.6z"/>
							</g>
						</g>
					</g>
				</g>
				<g class="st0">
					<g class="st0">
						<g>
							<defs>
								<rect id="SVGID_9_" x="718.1" y="417.1" width="58.4" height="60.7"/>
							</defs>
							<clipPath id="SVGID_10_">
								<use xlink:href="#SVGID_9_"  style="overflow:visible;"/>
							</clipPath>
							<g class="st6">
								<path class="st2" d="M718.1,477.8v-60.7h58.4v60.7H718.1z"/>
							</g>
						</g>
					</g>
				</g>
				<g class="st0">
					<g class="st0">
						<g>
							<defs>
								<rect id="SVGID_11_" x="924.8" y="470.8" width="58.4" height="60.7"/>
							</defs>
							<clipPath id="SVGID_12_">
								<use xlink:href="#SVGID_11_"  style="overflow:visible;"/>
							</clipPath>
							<g class="st7">
								<path class="st2" d="M924.8,531.5v-60.7h58.4v60.7H924.8z"/>
							</g>
						</g>
					</g>
				</g>
				<g class="st0">
					<g class="st0">
						<g>
							<defs>
								<rect id="SVGID_13_" x="819.7" y="789.5" width="163.5" height="163.5"/>
							</defs>
							<clipPath id="SVGID_14_">
								<use xlink:href="#SVGID_13_"  style="overflow:visible;"/>
							</clipPath>
							<g class="st8">
								<path class="st2" d="M819.7,953V789.5h163.5V953H819.7z"/>
							</g>
						</g>
					</g>
				</g>
				<g class="st0">
					<g>
						<defs>
							<circle id="SVGID_15_" cx="1081.9" cy="422.3" r="22.8"/>
						</defs>
						<clipPath id="SVGID_16_">
							<use xlink:href="#SVGID_15_"  style="overflow:visible;"/>
						</clipPath>
						<g class="st9">
							<path class="st2" d="M1059.1,422.3c0-12.6,10.2-22.8,22.8-22.8s22.8,10.2,22.8,22.8c0,12.6-10.2,22.8-22.8,22.8
								S1059.1,434.9,1059.1,422.3z"/>
						</g>
					</g>
				</g>
				<g class="st0">
					<g class="st0">
						<g>
							<defs>
								<rect id="SVGID_17_" x="1235.4" y="421.7" width="163.5" height="163.5"/>
							</defs>
							<clipPath id="SVGID_18_">
								<use xlink:href="#SVGID_17_"  style="overflow:visible;"/>
							</clipPath>
							<g class="st10">
								<path class="st2" d="M1235.4,585.2V421.7h163.5v163.5H1235.4z"/>
							</g>
						</g>
					</g>
				</g>
			</g>
		</g>
		<g class="st11">
			<g class="st12">
				<g class="st13">
					<g class="st13">
						<g>
							<defs>
								<rect id="SVGID_19_" x="976.2" y="578.2" width="58.4" height="60.7"/>
							</defs>
							<clipPath id="SVGID_20_">
								<use xlink:href="#SVGID_19_"  style="overflow:visible;"/>
							</clipPath>
							<g class="st14">
								<path class="st2" d="M976.2,638.9v-60.7h58.4v60.7H976.2z"/>
							</g>
						</g>
					</g>
				</g>
				<g class="st13">
					<g class="st13">
						<g>
							<defs>
								<rect id="SVGID_21_" x="1235.4" y="524.5" width="58.4" height="60.7"/>
							</defs>
							<clipPath id="SVGID_22_">
								<use xlink:href="#SVGID_21_"  style="overflow:visible;"/>
							</clipPath>
							<g class="st15">
								<path class="st2" d="M1235.4,585.2v-60.7h58.4v60.7H1235.4z"/>
							</g>
						</g>
					</g>
				</g>
				<g class="st16">
					<g class="st16">
						<g>
							<defs>
								<rect id="SVGID_23_" x="923.6" y="159" width="110.9" height="110.9"/>
							</defs>
							<clipPath id="SVGID_24_">
								<use xlink:href="#SVGID_23_"  style="overflow:visible;"/>
							</clipPath>
							<g class="st17">
								<path class="st2" d="M923.6,269.9V159h110.9v110.9H923.6z"/>
							</g>
						</g>
					</g>
				</g>
				<g class="st18">
					<g>
						<defs>
							<circle id="SVGID_25_" cx="927.7" cy="687.4" r="22.8"/>
						</defs>
						<clipPath id="SVGID_26_">
							<use xlink:href="#SVGID_25_"  style="overflow:visible;"/>
						</clipPath>
						<g class="st19">
							<path class="st2" d="M905,687.4c0-12.6,10.2-22.8,22.8-22.8c12.6,0,22.8,10.2,22.8,22.8s-10.2,22.8-22.8,22.8
								C915.1,710.1,905,699.9,905,687.4z"/>
						</g>
					</g>
				</g>
			</g>
		</g>
		<g class="st11">
			<g class="st12">
				<g>
					<g>
						<g>
							<path class="st20" d="M890.6,411.5h33.7v58.7h-91.2L890.6,411.5z M828.1,371.8h57.5v34.4l-57.5,58.7V371.8z M892.7,371.8
								h31.6v32.3h-31.6V371.8z M820.9,477.5h110.7v-113H820.9V477.5z"/>
						</g>
					</g>
				</g>
				<g>
					<g>
						<g>
							<path class="st20" d="M1131,577.7h-44.5v-25.5c11-1.7,19.4-11.2,19.4-22.7c0-12.7-10.3-23-23-23c-12.7,0-23,10.3-23,23
								c0,11.5,8.4,20.9,19.4,22.7v25.5h-44.6v-96.3h96.3V577.7z M1067.1,529.6c0-8.7,7.1-15.8,15.8-15.8c8.7,0,15.8,7.1,15.8,15.8
								c0,8.7-7.1,15.8-15.8,15.8C1074.2,545.4,1067.1,538.3,1067.1,529.6z M1027.6,584.9h110.7V474.3h-110.7V584.9z"/>
						</g>
					</g>
				</g>
				<g>
					<g>
						<g>
							<defs>
								<rect id="SVGID_27_" x="1131.5" y="578.2" width="110.9" height="110.9"/>
							</defs>
							<clipPath id="SVGID_28_">
								<use xlink:href="#SVGID_27_"  style="overflow:visible;"/>
							</clipPath>
							<g class="st21">
								<path class="st2" d="M1131.5,689.1V578.2h110.9v110.9H1131.5z"/>
							</g>
						</g>
					</g>
				</g>
				<g>
					<g>
						<g>
							<defs>
								<rect id="SVGID_29_" x="872.3" y="631.9" width="110.9" height="110.9"/>
							</defs>
							<clipPath id="SVGID_30_">
								<use xlink:href="#SVGID_29_"  style="overflow:visible;"/>
							</clipPath>
							<g class="st22">
								<path class="st2" d="M872.3,742.8V631.9h110.9v110.9H872.3z"/>
							</g>
						</g>
					</g>
				</g>
				<g>
					<g>
						<defs>
							<circle id="SVGID_31_" cx="1287.4" cy="636" r="22.8"/>
						</defs>
						<clipPath id="SVGID_32_">
							<use xlink:href="#SVGID_31_"  style="overflow:visible;"/>
						</clipPath>
						<g class="st23">
							<path class="st2" d="M1264.6,636c0-12.6,10.2-22.8,22.8-22.8c12.6,0,22.8,10.2,22.8,22.8s-10.2,22.8-22.8,22.8
								C1274.8,658.8,1264.6,648.6,1264.6,636z"/>
						</g>
					</g>
				</g>
				<g>
					<g>
						<g>
							<defs>
								<rect id="SVGID_33_" x="976.2" y="789.5" width="58.4" height="60.7"/>
							</defs>
							<clipPath id="SVGID_34_">
								<use xlink:href="#SVGID_33_"  style="overflow:visible;"/>
							</clipPath>
							<g class="st24">
								<path class="st2" d="M976.2,850.2v-60.7h58.4v60.7H976.2z"/>
							</g>
						</g>
					</g>
				</g>
			</g>
			<g class="st12">
				<g>
					<g>
						<defs>
							<rect id="SVGID_35_" x="769.5" y="470.8" width="58.4" height="60.7"/>
						</defs>
						<clipPath id="SVGID_36_">
							<use xlink:href="#SVGID_35_"  style="overflow:visible;"/>
						</clipPath>
						<g class="st25">
							<path class="st2" d="M769.5,531.5v-60.7h58.4v60.7H769.5z"/>
						</g>
					</g>
				</g>
			</g>
			<g class="st12">
				<g>
					<g>
						<defs>
							<rect id="SVGID_37_" x="924.8" y="524.5" width="58.4" height="60.7"/>
						</defs>
						<clipPath id="SVGID_38_">
							<use xlink:href="#SVGID_37_"  style="overflow:visible;"/>
						</clipPath>
						<g class="st26">
							<path class="st2" d="M924.8,585.2v-60.7h58.4v60.7H924.8z"/>
						</g>
					</g>
				</g>
			</g>
		</g>
	</g>
</g>
</svg>
